<?xml version="1.0" standalone="no"?>
<!DOCTYPE svg PUBLIC "-//W3C//DTD SVG 20010904//EN"
 "http://www.w3.org/TR/2001/REC-SVG-20010904/DTD/svg10.dtd">
<svg version="1.0" xmlns="http://www.w3.org/2000/svg"
 width="256.000000pt" height="256.000000pt" viewBox="0 0 256.000000 256.000000"
 preserveAspectRatio="xMidYMid meet">
<metadata>
Created by potrace 1.11, written by Peter Selinger 2001-2013
</metadata>
<g transform="translate(0.000000,256.000000) scale(0.100000,-0.100000)"
fill="#000000" stroke="none">
<path d="M1140 2554 c-208 -27 -407 -101 -580 -217 -96 -64 -273 -241 -337
-337 -95 -142 -163 -302 -199 -470 -26 -119 -26 -381 0 -500 97 -449 410 -808
836 -958 99 -35 241 -66 251 -55 7 9 109 356 109 374 0 6 -28 41 -61 77 -96
103 -148 239 -149 389 0 64 38 278 65 367 8 28 12 53 8 57 -5 4 -79 34 -166
67 -86 32 -160 61 -162 64 -3 2 -16 49 -31 104 -33 128 -35 194 -8 231 34 46
59 53 191 53 122 0 123 0 157 30 18 17 50 37 70 45 72 30 275 10 407 -40 162
-62 259 -221 275 -447 8 -114 -4 -165 -52 -218 -52 -57 -114 -83 -191 -78 -83
5 -137 41 -176 118 -27 52 -28 60 -24 160 3 75 11 125 28 175 24 69 25 70 59
70 34 0 35 -1 34 -40 0 -22 -8 -67 -17 -100 -21 -72 -22 -176 -3 -213 38 -73
117 -101 186 -65 65 33 84 112 59 249 -43 244 -175 346 -451 348 l-107 1 -38
-37 -39 -38 -121 0 c-67 0 -134 -5 -149 -10 -26 -10 -27 -13 -21 -68 3 -31 11
-80 17 -108 l11 -52 127 -47 c172 -64 231 -91 238 -108 3 -8 -6 -57 -21 -110
-63 -231 -77 -370 -50 -486 21 -89 57 -150 132 -223 35 -35 68 -71 73 -80 7
-12 -6 -70 -50 -216 -33 -110 -60 -203 -60 -207 0 -23 395 22 440 50 6 4 2 22
-9 43 -31 61 -61 163 -61 206 1 77 53 160 137 215 42 28 54 31 122 31 79 0
171 -19 197 -41 19 -15 14 -49 -8 -62 -12 -8 -36 -7 -85 3 -134 26 -173 16
-237 -64 -44 -54 -42 -116 6 -219 42 -88 31 -86 150 -26 112 56 233 147 332
249 53 54 96 104 96 110 0 36 -80 131 -288 342 -228 231 -234 239 -220 260 9
13 23 25 33 27 20 3 439 -408 502 -493 43 -57 41 -58 103 64 48 96 93 222 116
330 26 119 26 381 0 500 -56 259 -167 463 -355 651 -185 185 -379 293 -631
350 -83 19 -331 33 -410 23z"/>
</g>
</svg>
